<?xml version="1.0" encoding="UTF-8" standalone="no"?>
<!-- Generator: Adobe Illustrator 15.0.0, SVG Export Plug-In . SVG Version: 6.00 Build 0)  -->

<svg
   xmlns:dc="http://purl.org/dc/elements/1.1/"
   xmlns:cc="http://creativecommons.org/ns#"
   xmlns:rdf="http://www.w3.org/1999/02/22-rdf-syntax-ns#"
   xmlns:svg="http://www.w3.org/2000/svg"
   xmlns="http://www.w3.org/2000/svg"
   xmlns:sodipodi="http://sodipodi.sourceforge.net/DTD/sodipodi-0.dtd"
   xmlns:inkscape="http://www.inkscape.org/namespaces/inkscape"
   version="1.1"
   id="Layer_1"
   x="0px"
   y="0px"
   width="101.001"
   height="101"
   viewBox="0 0 101.001 101"
   enable-background="new 0 0 612 792"
   xml:space="preserve"
   sodipodi:docname="4B-Triskelion-box.svg"
   inkscape:version="0.92.3 (d244b95, 2018-08-02)"><metadata
   id="metadata3971"><rdf:RDF><cc:Work
       rdf:about=""><dc:format>image/svg+xml</dc:format><dc:type
         rdf:resource="http://purl.org/dc/dcmitype/StillImage" /><dc:title></dc:title></cc:Work></rdf:RDF></metadata><defs
   id="defs3969" /><sodipodi:namedview
   pagecolor="#ffffff"
   bordercolor="#666666"
   borderopacity="1"
   objecttolerance="10"
   gridtolerance="10"
   guidetolerance="10"
   inkscape:pageopacity="0"
   inkscape:pageshadow="2"
   inkscape:window-width="1299"
   inkscape:window-height="713"
   id="namedview3967"
   showgrid="false"
   inkscape:zoom="0.66540404"
   inkscape:cx="-63.407013"
   inkscape:cy="-144.758"
   inkscape:window-x="67"
   inkscape:window-y="27"
   inkscape:window-maximized="1"
   inkscape:current-layer="Layer_1" />












<rect
   x="0.5"
   y="0.5"
   stroke-miterlimit="10"
   width="100.001"
   height="100"
   id="rect3886"
   style="fill:none;stroke:#000000;stroke-miterlimit:10" />




































<g
   id="g3962"
   transform="translate(-369.40701,-150.242)">
	<path
   stroke-miterlimit="10"
   d="m 380.745,188.994 c 0.745,0.745 1.689,1.31 2.779,1.602 l 36.695,9.833 9.834,36.696 c 0.887,3.311 4.291,5.276 7.602,4.389 1.09,-0.292 2.033,-0.856 2.778,-1.601 1.518,-1.517 2.205,-3.779 1.609,-6.001 l -9.832,-36.696 26.863,-26.864 c 2.424,-2.424 2.424,-6.353 0,-8.777 -2.424,-2.424 -6.353,-2.424 -8.776,0 l -26.863,26.863 -36.697,-9.833 c -2.221,-0.595 -4.484,0.093 -6.002,1.611 -0.743,0.744 -1.309,1.688 -1.6,2.778 -0.595,2.221 0.094,4.484 1.61,6 z"
   id="path3960"
   inkscape:connector-curvature="0"
   style="fill:none;stroke:#000000;stroke-miterlimit:10" />
</g>

</svg>