<?xml version="1.0" encoding="UTF-8" standalone="no"?>
<!-- Generator: Adobe Illustrator 15.0.0, SVG Export Plug-In . SVG Version: 6.00 Build 0)  -->

<svg
   xmlns:dc="http://purl.org/dc/elements/1.1/"
   xmlns:cc="http://creativecommons.org/ns#"
   xmlns:rdf="http://www.w3.org/1999/02/22-rdf-syntax-ns#"
   xmlns:svg="http://www.w3.org/2000/svg"
   xmlns="http://www.w3.org/2000/svg"
   xmlns:sodipodi="http://sodipodi.sourceforge.net/DTD/sodipodi-0.dtd"
   xmlns:inkscape="http://www.inkscape.org/namespaces/inkscape"
   version="1.1"
   id="Layer_1"
   x="0px"
   y="0px"
   width="101.001"
   height="100.999"
   viewBox="0 0 101.001 100.999"
   enable-background="new 0 0 612 792"
   xml:space="preserve"
   sodipodi:docname="4E-X-box.svg"
   inkscape:version="0.92.3 (d244b95, 2018-08-02)"><metadata
   id="metadata3971"><rdf:RDF><cc:Work
       rdf:about=""><dc:format>image/svg+xml</dc:format><dc:type
         rdf:resource="http://purl.org/dc/dcmitype/StillImage" /><dc:title></dc:title></cc:Work></rdf:RDF></metadata><defs
   id="defs3969" /><sodipodi:namedview
   pagecolor="#ffffff"
   bordercolor="#666666"
   borderopacity="1"
   objecttolerance="10"
   gridtolerance="10"
   guidetolerance="10"
   inkscape:pageopacity="0"
   inkscape:pageshadow="2"
   inkscape:window-width="1299"
   inkscape:window-height="713"
   id="namedview3967"
   showgrid="false"
   inkscape:zoom="0.66540404"
   inkscape:cx="-63.407013"
   inkscape:cy="185.35899"
   inkscape:window-x="67"
   inkscape:window-y="27"
   inkscape:window-maximized="1"
   inkscape:current-layer="Layer_1" />






























<rect
   x="0.5"
   y="0.5"
   stroke-miterlimit="10"
   width="100.001"
   height="99.999001"
   id="rect3922"
   style="fill:none;stroke:#000000;stroke-miterlimit:10" />



















<path
   stroke-miterlimit="10"
   d="m 58.787987,50.501015 17.234,-29.85 c 2.21,-3.826 0.898,-8.719 -2.928,-10.9280004 -3.826,-2.209 -8.719,-0.899 -10.928,2.9280004 l -12.615,21.851 -12.616,-21.851 c -2.208,-3.8250004 -7.1,-5.1400004 -10.928,-2.9280004 -3.826,2.2090004 -5.138,7.1020004 -2.928,10.9280004 l 17.234,29.85 -17.234,29.85 c -2.21,3.826 -0.898,8.719 2.928,10.928 1.26,0.728 2.635,1.073 3.992,1.073 2.765,0 5.454,-1.435 6.936,-4.001 l 12.616,-21.851 12.615,21.851 c 1.481,2.566 4.17,4.001 6.936,4.001 1.356,0 2.732,-0.346 3.992,-1.073 3.826,-2.209 5.138,-7.102 2.928,-10.928 z"
   id="path3964"
   inkscape:connector-curvature="0"
   style="fill:none;stroke:#000000;stroke-miterlimit:10" />
</svg>