<?xml version="1.0" encoding="UTF-8" standalone="no"?>
<!-- Generator: Adobe Illustrator 15.0.0, SVG Export Plug-In . SVG Version: 6.00 Build 0)  -->

<svg
   xmlns:dc="http://purl.org/dc/elements/1.1/"
   xmlns:cc="http://creativecommons.org/ns#"
   xmlns:rdf="http://www.w3.org/1999/02/22-rdf-syntax-ns#"
   xmlns:svg="http://www.w3.org/2000/svg"
   xmlns="http://www.w3.org/2000/svg"
   xmlns:sodipodi="http://sodipodi.sourceforge.net/DTD/sodipodi-0.dtd"
   xmlns:inkscape="http://www.inkscape.org/namespaces/inkscape"
   version="1.1"
   id="Layer_1"
   x="0px"
   y="0px"
   width="101.002"
   height="101"
   viewBox="0 0 101.002 101"
   enable-background="new 0 0 612 792"
   xml:space="preserve"
   sodipodi:docname="5A-Starfish-box.svg"
   inkscape:version="0.92.3 (d244b95, 2018-08-02)"><metadata
   id="metadata3971"><rdf:RDF><cc:Work
       rdf:about=""><dc:format>image/svg+xml</dc:format><dc:type
         rdf:resource="http://purl.org/dc/dcmitype/StillImage" /><dc:title></dc:title></cc:Work></rdf:RDF></metadata><defs
   id="defs3969" /><sodipodi:namedview
   pagecolor="#ffffff"
   bordercolor="#666666"
   borderopacity="1"
   objecttolerance="10"
   gridtolerance="10"
   guidetolerance="10"
   inkscape:pageopacity="0"
   inkscape:pageshadow="2"
   inkscape:window-width="1299"
   inkscape:window-height="713"
   id="namedview3967"
   showgrid="false"
   inkscape:zoom="0.66540404"
   inkscape:cx="-177.314"
   inkscape:cy="-254.798"
   inkscape:window-x="67"
   inkscape:window-y="27"
   inkscape:window-maximized="1"
   inkscape:current-layer="Layer_1" />







<rect
   x="0.5"
   y="0.5"
   stroke-miterlimit="10"
   width="100.002"
   height="100"
   id="rect3876"
   style="fill:none;stroke:#000000;stroke-miterlimit:10" />

































<path
   stroke-miterlimit="10"
   d="m 71.949005,16.246 -0.568,-0.294 c -2.506,-1.281 -5.584,-0.283 -6.863,2.225 l -13.666,21.842 -19.728,-16.599 c -1.988,-1.991 -5.218,-1.993 -7.215,-0.006 l -0.452,0.452 c -1.994,1.989 -1.998,5.22 -0.007,7.216 l 16.551,19.745 -21.868,13.626 c -2.51,1.275 -3.512,4.348 -2.238,6.86 l 0.291,0.566 c 1.275,2.514 4.346,3.513 6.861,2.237 l 23.892,-9.638 6.202,25.005 c 0.438,2.789 3.047,4.69 5.832,4.251 l 0.629,-0.101 c 2.781,-0.436 4.687,-3.047 4.244,-5.835 l -1.777,-25.7 25.698,1.83 c 2.786,0.45 5.397,-1.452 5.842,-4.232 l 0.103,-0.629 c 0.441,-2.784 -1.452,-5.4 -4.236,-5.841 l -24.982,-6.244 9.679,-23.872 c 1.28,-2.513 0.283,-5.584 -2.224,-6.864 z"
   id="path3944"
   inkscape:connector-curvature="0"
   style="fill:none;stroke:#000000;stroke-miterlimit:10" />









</svg>