<?xml version="1.0" encoding="utf-8"?>
<!-- Generator: Adobe Illustrator 15.0.0, SVG Export Plug-In . SVG Version: 6.00 Build 0)  -->
<!DOCTYPE svg PUBLIC "-//W3C//DTD SVG 1.1//EN" "http://www.w3.org/Graphics/SVG/1.1/DTD/svg11.dtd">
<svg version="1.1" id="Layer_1" xmlns="http://www.w3.org/2000/svg" xmlns:xlink="http://www.w3.org/1999/xlink" x="0px" y="0px"
	 width="612px" height="792px" viewBox="0 0 612 792" enable-background="new 0 0 612 792" xml:space="preserve">
<rect x="28.184" y="40.702" fill="none" stroke="#000000" stroke-miterlimit="10" width="100" height="100"/>
<path fill="none" stroke="#000000" stroke-miterlimit="10" d="M119.907,111.563H36.462c0-23.043,18.68-41.723,41.722-41.723
	C101.227,69.841,119.907,88.521,119.907,111.563z"/>
<path fill="none" stroke="#000000" stroke-miterlimit="10" d="M315.834,84.511c-10.863-10.862-28.474-10.863-39.336,0
	c-10.863,10.862-10.863,28.474,0,39.336l19.668-19.668c10.861,10.862,28.473,10.863,39.336,0
	c10.861-10.862,10.861-28.473-0.001-39.335L315.834,84.511z"/>
<path fill="none" stroke="#000000" stroke-miterlimit="10" d="M523.979,300.947c10.863-10.862,28.474-10.863,39.336,0
	c10.863,10.862,10.863,28.474,0,39.336l-19.668-19.668c-10.861,10.862-28.473,10.863-39.336,0
	c-10.861-10.862-10.861-28.473,0.001-39.335L523.979,300.947z"/>
<rect x="142.092" y="40.702" fill="none" stroke="#000000" stroke-miterlimit="10" width="100" height="100"/>
<rect x="256" y="40.702" fill="none" stroke="#000000" stroke-miterlimit="10" width="100" height="100"/>
<rect x="369.907" y="40.702" fill="none" stroke="#000000" stroke-miterlimit="10" width="100.001" height="100"/>
<rect x="483.814" y="40.702" fill="none" stroke="#000000" stroke-miterlimit="10" width="100.002" height="100"/>
<rect x="28.184" y="150.742" fill="none" stroke="#000000" stroke-miterlimit="10" width="100" height="100"/>
<rect x="142.092" y="150.742" fill="none" stroke="#000000" stroke-miterlimit="10" width="100" height="100"/>
<rect x="256" y="150.742" fill="none" stroke="#000000" stroke-miterlimit="10" width="100" height="100"/>
<polygon fill="none" stroke="#000000" stroke-miterlimit="10" points="270.173,236.568 270.173,164.915 341.827,164.915 "/>
<rect x="369.907" y="150.742" fill="none" stroke="#000000" stroke-miterlimit="10" width="100.001" height="100"/>
<rect x="483.814" y="150.742" fill="none" stroke="#000000" stroke-miterlimit="10" width="100.002" height="100"/>
<rect x="495.039" y="169.749" fill="none" stroke="#000000" stroke-miterlimit="10" width="77.551" height="61.985"/>
<polygon fill="none" stroke="#000000" stroke-miterlimit="10" points="390.142,447.809 382.134,385.823 447.775,393.827 
	455.783,455.816 "/>
<rect x="28.184" y="260.781" fill="none" stroke="#000000" stroke-miterlimit="10" width="100" height="100"/>
<polygon fill="none" stroke="#000000" stroke-miterlimit="10" points="42.357,342.606 42.357,270.953 114.011,280.958 
	114.011,352.611 "/>
<rect x="142.092" y="260.781" fill="none" stroke="#000000" stroke-miterlimit="10" width="100" height="100"/>
<rect x="256" y="260.781" fill="none" stroke="#000000" stroke-miterlimit="10" width="100" height="100"/>
<rect x="369.907" y="260.781" fill="none" stroke="#000000" stroke-miterlimit="10" width="100.001" height="100"/>
<rect x="483.814" y="260.781" fill="none" stroke="#000000" stroke-miterlimit="10" width="100.002" height="100"/>
<rect x="28.184" y="370.821" fill="none" stroke="#000000" stroke-miterlimit="10" width="100" height="100"/>
<rect x="142.092" y="370.821" fill="none" stroke="#000000" stroke-miterlimit="10" width="100" height="100"/>
<rect x="256" y="370.821" fill="none" stroke="#000000" stroke-miterlimit="10" width="100" height="100"/>
<rect x="369.907" y="370.821" fill="none" stroke="#000000" stroke-miterlimit="10" width="100.001" height="100"/>
<rect x="483.814" y="370.821" fill="none" stroke="#000000" stroke-miterlimit="10" width="100.002" height="100"/>
<rect x="28.184" y="480.86" fill="none" stroke="#000000" stroke-miterlimit="10" width="100" height="99.999"/>
<rect x="142.092" y="480.86" fill="none" stroke="#000000" stroke-miterlimit="10" width="100" height="99.999"/>
<rect x="256" y="480.86" fill="none" stroke="#000000" stroke-miterlimit="10" width="100" height="99.999"/>
<rect x="369.907" y="480.86" fill="none" stroke="#000000" stroke-miterlimit="10" width="100.001" height="99.999"/>
<rect x="483.814" y="480.86" fill="none" stroke="#000000" stroke-miterlimit="10" width="100.002" height="99.999"/>
<rect x="164.777" y="63.387" transform="matrix(-0.7071 -0.7071 0.7071 -0.7071 263.7858 290.6684)" fill="none" stroke="#000000" stroke-miterlimit="10" width="54.631" height="54.631"/>
<polygon fill="none" stroke="#000000" stroke-miterlimit="10" points="234.221,385.212 221.179,456.428 163.007,456.428 
	149.964,385.212 "/>
<polygon fill="none" stroke="#000000" stroke-miterlimit="10" points="399.047,126.834 378.186,90.702 399.047,54.57 440.769,54.57 
	461.629,90.702 440.769,126.834 "/>
<path fill="none" stroke="#000000" stroke-miterlimit="10" d="M178.28,162.112c-6.854-6.854-17.965-6.854-24.818,0
	s-6.854,17.965,0,24.819l0,0l52.442,52.442l0,0c6.854,6.854,17.965,6.854,24.819,0s6.853-17.965,0-24.818l0,0L178.28,162.112
	L178.28,162.112z"/>
<path fill="none" stroke="#000000" stroke-miterlimit="10" d="M339.11,534.407c10.123-10.123,10.125-26.536,0.002-36.658
	c-10.122-10.123-26.536-10.123-36.66,0l0,0l-29.563,29.563l0,0c-10.123,10.123-10.123,26.536,0,36.659
	c10.123,10.123,26.535,10.122,36.658-0.001l-0.001,0.002L339.11,534.407L339.11,534.407z"/>
<path fill="none" stroke="#000000" stroke-miterlimit="10" d="M215.483,287.389c16.295,16.294,16.294,42.711,0,59.005
	l-17.093-17.093c6.854-6.854,6.854-17.965,0-24.818s-17.964-6.853-24.817,0l-17.094-17.094
	C172.772,271.096,199.19,271.095,215.483,287.389z"/>
<circle fill="none" stroke="#000000" stroke-miterlimit="10" cx="306" cy="310.781" r="35.613"/>
<polygon fill="none" stroke="#000000" stroke-miterlimit="10" points="431.953,276.517 419.909,288.562 407.863,276.516 
	384.643,299.737 396.688,311.783 384.644,323.827 407.863,347.047 419.908,335.003 431.953,347.048 455.174,323.827 
	443.129,311.782 455.174,299.737 "/>
<path fill="none" stroke="#000000" stroke-miterlimit="10" d="M118.242,380.763c0,44.246-35.869,80.115-80.116,80.115v-80.115
	H118.242z"/>
<path fill="none" stroke="#000000" stroke-miterlimit="10" d="M555.263,56.448l-0.568-0.294c-2.506-1.281-5.584-0.283-6.863,2.225
	l-13.666,21.842l-19.728-16.599c-1.988-1.991-5.218-1.993-7.215-0.006l-0.452,0.452c-1.994,1.989-1.998,5.22-0.007,7.216
	l16.551,19.745l-21.868,13.626c-2.51,1.275-3.512,4.348-2.238,6.86l0.291,0.566c1.275,2.514,4.346,3.513,6.861,2.237l23.892-9.638
	l6.202,25.005c0.438,2.789,3.047,4.69,5.832,4.251l0.629-0.101c2.781-0.436,4.687-3.047,4.244-5.835l-1.777-25.7l25.698,1.83
	c2.786,0.45,5.397-1.452,5.842-4.232l0.103-0.629c0.441-2.784-1.452-5.4-4.236-5.841l-24.982-6.244l9.679-23.872
	C558.767,60.799,557.77,57.728,555.263,56.448z"/>
<polygon fill="none" stroke="#000000" stroke-miterlimit="10" points="101.524,646.582 108.057,676.285 83.107,662.255 
	57.399,676.285 63.931,646.582 43.458,629.023 72.297,629.023 83.107,600.721 93.156,629.023 121.994,629.023 "/>
<polygon fill="none" stroke="#000000" stroke-miterlimit="10" points="51.826,174.042 77.549,182.766 99.32,166.52 98.972,193.681 
	121.15,209.365 95.211,217.429 87.148,243.367 71.464,221.189 44.302,221.537 60.548,199.767 "/>
<polygon fill="none" stroke="#000000" stroke-miterlimit="10" points="327.315,382.048 324.737,409.442 350.072,420.178 
	325.06,431.642 328.431,458.949 305.996,443.02 284.032,459.592 286.61,432.198 261.276,421.463 286.289,409.999 282.919,382.691 
	305.354,398.621 "/>
<polygon fill="none" stroke="#000000" stroke-miterlimit="10" points="508.714,444.885 499.05,420.088 509.751,395.719 
	534.549,386.055 558.918,396.756 568.581,421.554 557.881,445.922 533.082,455.586 "/>
<polygon fill="none" stroke="#000000" stroke-miterlimit="10" points="151.979,553.32 160.453,503.942 210.034,496.742 
	232.203,541.672 196.324,576.639 "/>
<polygon fill="none" stroke="#000000" stroke-miterlimit="10" points="514.404,572.686 491.989,489.035 575.641,511.449 "/>
<polygon fill="none" stroke="#000000" stroke-miterlimit="10" points="107.494,535.234 120.021,489.01 73.571,501.316 
	35.935,573.106 "/>
<g>
	<path fill="none" stroke="#000000" stroke-miterlimit="10" d="M380.745,188.994c0.745,0.745,1.689,1.31,2.779,1.602l36.695,9.833
		l9.834,36.696c0.887,3.311,4.291,5.276,7.602,4.389c1.09-0.292,2.033-0.856,2.778-1.601c1.518-1.517,2.205-3.779,1.609-6.001
		l-9.832-36.696l26.863-26.864c2.424-2.424,2.424-6.353,0-8.777s-6.353-2.424-8.776,0l-26.863,26.863l-36.697-9.833
		c-2.221-0.595-4.484,0.093-6.002,1.611c-0.743,0.744-1.309,1.688-1.6,2.778C378.54,185.215,379.229,187.478,380.745,188.994z"/>
</g>
<path fill="none" stroke="#000000" stroke-miterlimit="10" d="M428.195,530.861l17.234-29.85c2.21-3.826,0.898-8.719-2.928-10.928
	s-8.719-0.899-10.928,2.928l-12.615,21.851l-12.616-21.851c-2.208-3.825-7.1-5.14-10.928-2.928
	c-3.826,2.209-5.138,7.102-2.928,10.928l17.234,29.85l-17.234,29.85c-2.21,3.826-0.898,8.719,2.928,10.928
	c1.26,0.728,2.635,1.073,3.992,1.073c2.765,0,5.454-1.435,6.936-4.001l12.616-21.851l12.615,21.851
	c1.481,2.566,4.17,4.001,6.936,4.001c1.356,0,2.732-0.346,3.992-1.073c3.826-2.209,5.138-7.102,2.928-10.928L428.195,530.861z"/>
</svg>
